<svg width="36" height="36" viewBox="0 0 36 36" fill="none" xmlns="http://www.w3.org/2000/svg">
<g clip-path="url(#clip0_126_461)">
<path d="M29.9997 17H18.9997V6C18.9997 5.73478 18.8943 5.48043 18.7068 5.29289C18.5192 5.10536 18.2649 5 17.9997 5C17.7345 5 17.4801 5.10536 17.2926 5.29289C17.105 5.48043 16.9997 5.73478 16.9997 6V17H5.99968C5.73446 17 5.48011 17.1054 5.29257 17.2929C5.10504 17.4804 4.99968 17.7348 4.99968 18C4.99474 18.13 5.01773 18.2595 5.06707 18.3798C5.11642 18.5001 5.19099 18.6085 5.28576 18.6976C5.38052 18.7867 5.49328 18.8544 5.61643 18.8962C5.73958 18.938 5.87027 18.953 5.99968 18.94H16.9997V30C16.9997 30.2652 17.105 30.5196 17.2926 30.7071C17.4801 30.8946 17.7345 31 17.9997 31C18.2649 31 18.5192 30.8946 18.7068 30.7071C18.8943 30.5196 18.9997 30.2652 18.9997 30V19H29.9997C30.2649 19 30.5193 18.8946 30.7068 18.7071C30.8943 18.5196 30.9997 18.2652 30.9997 18C30.9997 17.7348 30.8943 17.4804 30.7068 17.2929C30.5193 17.1054 30.2649 17 29.9997 17Z" fill="black"/>
</g>
<defs>
<clipPath id="clip0_126_461">
<rect width="36" height="36" fill="white"/>
</clipPath>
</defs>
</svg>
