<svg width="24" height="24" viewBox="0 0 24 24" fill="none" xmlns="http://www.w3.org/2000/svg">
<path d="M14.2828 3.50131L6.5098 11.4753C6.37328 11.6154 6.29688 11.8032 6.29688 11.9988C6.29688 12.1944 6.37328 12.3822 6.5098 12.5223L14.2828 20.4993C14.3464 20.5646 14.4224 20.6165 14.5064 20.652C14.5904 20.6874 14.6806 20.7057 14.7718 20.7057C14.863 20.7057 14.9532 20.6874 15.0372 20.652C15.1212 20.6165 15.1972 20.5646 15.2608 20.4993C15.3916 20.3654 15.4649 20.1855 15.4649 19.9983C15.4649 19.8111 15.3916 19.6313 15.2608 19.4973L7.9513 11.9988L15.2608 4.50181C15.3912 4.36793 15.4641 4.18844 15.4641 4.00156C15.4641 3.81468 15.3912 3.63519 15.2608 3.50131C15.1972 3.43599 15.1212 3.38408 15.0372 3.34863C14.9532 3.31318 14.863 3.29492 14.7718 3.29492C14.6806 3.29492 14.5904 3.31318 14.5064 3.34863C14.4224 3.38408 14.3464 3.43599 14.2828 3.50131V3.50131Z" fill="black"/>
</svg>
