<svg width="24" height="24" viewBox="0 0 24 24" fill="none" xmlns="http://www.w3.org/2000/svg">
<path d="M9.7172 3.50131L17.4902 11.4753C17.6267 11.6154 17.7031 11.8032 17.7031 11.9988C17.7031 12.1944 17.6267 12.3822 17.4902 12.5223L9.7172 20.4993C9.6536 20.5646 9.57757 20.6165 9.49358 20.652C9.4096 20.6874 9.31936 20.7057 9.2282 20.7057C9.13704 20.7057 9.0468 20.6874 8.96281 20.652C8.87883 20.6165 8.80279 20.5646 8.7392 20.4993C8.60837 20.3654 8.53512 20.1855 8.53512 19.9983C8.53512 19.8111 8.60837 19.6313 8.7392 19.4973L16.0487 11.9988L8.7392 4.50181C8.60881 4.36793 8.53585 4.18844 8.53585 4.00156C8.53585 3.81468 8.60881 3.63519 8.7392 3.50131C8.80279 3.43599 8.87883 3.38408 8.96281 3.34863C9.0468 3.31318 9.13704 3.29492 9.2282 3.29492C9.31936 3.29492 9.4096 3.31318 9.49358 3.34863C9.57757 3.38408 9.6536 3.43599 9.7172 3.50131V3.50131Z" fill="black"/>
</svg>
