<svg width="24" height="24" viewBox="0 0 24 24" fill="none" xmlns="http://www.w3.org/2000/svg">
<path d="M19.4967 7.98878L11.9997 15.2968L4.50275 7.98878C4.3688 7.85795 4.18899 7.7847 4.00175 7.7847C3.81451 7.7847 3.63469 7.85795 3.50075 7.98878C3.43589 8.05233 3.38437 8.12818 3.34919 8.21189C3.31402 8.2956 3.2959 8.38548 3.2959 8.47628C3.2959 8.56708 3.31402 8.65697 3.34919 8.74068C3.38437 8.82439 3.43589 8.90024 3.50075 8.96378L11.4762 16.7398C11.6163 16.8763 11.8042 16.9527 11.9997 16.9527C12.1953 16.9527 12.3832 16.8763 12.5232 16.7398L20.4987 8.96528C20.5641 8.90169 20.616 8.82565 20.6514 8.74167C20.6869 8.65768 20.7051 8.56744 20.7051 8.47628C20.7051 8.38512 20.6869 8.29488 20.6514 8.2109C20.616 8.12691 20.5641 8.05088 20.4987 7.98728C20.3648 7.85645 20.185 7.7832 19.9977 7.7832C19.8105 7.7832 19.6307 7.85645 19.4967 7.98728V7.98878Z" fill="black"/>
</svg>
