<svg width="36" height="36" viewBox="0 0 36 36" fill="none" xmlns="http://www.w3.org/2000/svg">
<g clip-path="url(#clip0_243_456)">
<path d="M27.1409 34.0005H8.86086C8.47605 33.9914 8.0968 33.9066 7.74479 33.7509C7.39277 33.5952 7.07488 33.3716 6.80928 33.093C6.54369 32.8144 6.33559 32.4862 6.19687 32.1272C6.05816 31.7681 5.99155 31.3853 6.00086 31.0005V11.2305H8.00086V31.0005C7.99131 31.1227 8.00601 31.2456 8.04412 31.362C8.08223 31.4785 8.143 31.5864 8.22292 31.6793C8.30284 31.7722 8.40035 31.8484 8.50983 31.9036C8.61931 31.9587 8.7386 31.9916 8.86086 32.0005H27.1409C27.2631 31.9916 27.3824 31.9587 27.4919 31.9036C27.6014 31.8484 27.6989 31.7722 27.7788 31.6793C27.8587 31.5864 27.9195 31.4785 27.9576 31.362C27.9957 31.2456 28.0104 31.1227 28.0009 31.0005V11.2305H30.0009V31.0005C30.0102 31.3853 29.9436 31.7681 29.8048 32.1272C29.6661 32.4862 29.458 32.8144 29.1924 33.093C28.9268 33.3716 28.6089 33.5952 28.2569 33.7509C27.9049 33.9066 27.5257 33.9914 27.1409 34.0005V34.0005Z" fill="black"/>
<path d="M30.78 9H5C4.73478 9 4.48043 8.89464 4.29289 8.70711C4.10536 8.51957 4 8.26522 4 8C4 7.73478 4.10536 7.48043 4.29289 7.29289C4.48043 7.10536 4.73478 7 5 7H30.78C31.0452 7 31.2996 7.10536 31.4871 7.29289C31.6746 7.48043 31.78 7.73478 31.78 8C31.78 8.26522 31.6746 8.51957 31.4871 8.70711C31.2996 8.89464 31.0452 9 30.78 9Z" fill="black"/>
<path d="M21 13H23V28H21V13Z" fill="black"/>
<path d="M13 13H15V28H13V13Z" fill="black"/>
<path d="M23 5.86H21.1V4H14.9V5.86H13V4C12.9994 3.48645 13.1963 2.99233 13.55 2.62C13.9037 2.24767 14.3871 2.02568 14.9 2H21.1C21.6129 2.02568 22.0963 2.24767 22.45 2.62C22.8037 2.99233 23.0006 3.48645 23 4V5.86Z" fill="black"/>
</g>
<defs>
<clipPath id="clip0_243_456">
<rect width="36" height="36" fill="white"/>
</clipPath>
</defs>
</svg>
