<svg width="36" height="36" viewBox="0 0 36 36" fill="none" xmlns="http://www.w3.org/2000/svg">
<g clip-path="url(#clip0_211_458)">
<path d="M17.9995 6.71973C16.8662 6.71973 15.7584 7.05579 14.8161 7.68541C13.8738 8.31503 13.1394 9.20993 12.7057 10.257C12.272 11.304 12.1585 12.4561 12.3796 13.5676C12.6007 14.6791 13.1465 15.7001 13.9478 16.5014C14.7492 17.3028 15.7702 17.8485 16.8817 18.0696C17.9932 18.2907 19.1453 18.1772 20.1923 17.7436C21.2393 17.3099 22.1342 16.5754 22.7639 15.6331C23.3935 14.6909 23.7295 13.583 23.7295 12.4497C23.7295 10.93 23.1258 9.47259 22.0513 8.39801C20.9767 7.32342 19.5192 6.71973 17.9995 6.71973V6.71973ZM17.9995 16.1797C17.2618 16.1797 16.5407 15.961 15.9273 15.5511C15.3139 15.1413 14.8358 14.5587 14.5535 13.8771C14.2711 13.1956 14.1973 12.4456 14.3412 11.722C14.4851 10.9985 14.8404 10.3339 15.362 9.81222C15.8837 9.29057 16.5483 8.93532 17.2718 8.7914C17.9954 8.64747 18.7454 8.72134 19.4269 9.00366C20.1085 9.28597 20.6911 9.76405 21.1009 10.3774C21.5108 10.9908 21.7295 11.712 21.7295 12.4497C21.7269 13.4373 21.3327 14.3834 20.6335 15.0808C19.9343 15.7781 18.9871 16.1697 17.9995 16.1697V16.1797Z" fill="black"/>
<path d="M18.0007 2C14.8859 2.0026 11.8987 3.23769 9.69151 5.4355C7.48433 7.6333 6.23655 10.6152 6.2207 13.73C6.2207 18.4 8.8407 22.31 10.7607 25.16L11.1107 25.68C13.021 28.4486 15.0703 31.1187 17.2507 33.68L18.0107 34.57L18.7707 33.68C20.9509 31.1185 23.0001 28.4484 24.9107 25.68L25.2607 25.15C27.1707 22.3 29.7907 18.4 29.7907 13.73C29.7748 10.6135 28.5257 7.63006 26.3164 5.43197C24.107 3.23388 21.1172 1.99996 18.0007 2V2ZM23.5907 24L23.2307 24.53C21.5107 27.11 19.2307 30 18.0007 31.43C16.8207 30 14.4907 27.11 12.7707 24.53L12.4207 24C10.6507 21.36 8.2207 17.75 8.2207 13.69C8.2207 12.4057 8.47367 11.1339 8.96516 9.94736C9.45665 8.76079 10.177 7.68265 11.0852 6.7745C11.9934 5.86634 13.0715 5.14595 14.2581 4.65446C15.4446 4.16297 16.7164 3.91 18.0007 3.91C19.285 3.91 20.5568 4.16297 21.7433 4.65446C22.9299 5.14595 24.0081 5.86634 24.9162 6.7745C25.8244 7.68265 26.5448 8.76079 27.0362 9.94736C27.5277 11.1339 27.7807 12.4057 27.7807 13.69C27.7807 17.79 25.3607 21.4 23.5907 24V24Z" fill="black"/>
</g>
<defs>
<clipPath id="clip0_211_458">
<rect width="36" height="36" fill="white"/>
</clipPath>
</defs>
</svg>
