<svg width="28" height="28" viewBox="0 0 28 28" fill="none" xmlns="http://www.w3.org/2000/svg">
<path d="M14.167 16.333C21.0703 16.333 26.667 18.9447 26.667 22.1663V26.333H1.66699V22.1663C1.66699 18.9447 7.26366 16.333 14.167 16.333ZM25.0003 22.1663C25.0003 19.8663 20.1503 17.9997 14.167 17.9997C8.18366 17.9997 3.33366 19.8663 3.33366 22.1663V24.6663H25.0003V22.1663ZM14.167 1.33301C15.7141 1.33301 17.1978 1.94759 18.2918 3.04155C19.3857 4.13551 20.0003 5.61924 20.0003 7.16634C20.0003 8.71344 19.3857 10.1972 18.2918 11.2911C17.1978 12.3851 15.7141 12.9997 14.167 12.9997C12.6199 12.9997 11.1362 12.3851 10.0422 11.2911C8.94824 10.1972 8.33366 8.71344 8.33366 7.16634C8.33366 5.61924 8.94824 4.13551 10.0422 3.04155C11.1362 1.94759 12.6199 1.33301 14.167 1.33301ZM14.167 2.99967C13.0619 2.99967 12.0021 3.43866 11.2207 4.22006C10.4393 5.00146 10.0003 6.06127 10.0003 7.16634C10.0003 8.27141 10.4393 9.33122 11.2207 10.1126C12.0021 10.894 13.0619 11.333 14.167 11.333C15.2721 11.333 16.3319 10.894 17.1133 10.1126C17.8947 9.33122 18.3337 8.27141 18.3337 7.16634C18.3337 6.06127 17.8947 5.00146 17.1133 4.22006C16.3319 3.43866 15.2721 2.99967 14.167 2.99967V2.99967Z" fill="#00643C"/>
</svg>
